<?xml version="1.0" standalone="no"?>
<!DOCTYPE svg PUBLIC "-//W3C//DTD SVG 20010904//EN"
 "http://www.w3.org/TR/2001/REC-SVG-20010904/DTD/svg10.dtd">
<svg version="1.0" xmlns="http://www.w3.org/2000/svg"
 width="120.000000pt" height="101.000000pt" viewBox="0 0 120.000000 101.000000"
 preserveAspectRatio="xMidYMid meet">
<metadata>
Created by potrace 1.16, written by Peter Selinger 2001-2019
</metadata>
<g transform="translate(0.000000,101.000000) scale(0.100000,-0.100000)"
fill="#000000" stroke="none">
<path d="M417 959 c-79 -22 -123 -43 -154 -72 -27 -24 -28 -35 -7 -58 9 -10
14 -26 10 -35 -5 -13 -14 -15 -46 -10 -32 5 -41 3 -50 -13 -24 -47 -5 -188 44
-316 28 -72 108 -209 129 -221 8 -5 8 -3 0 7 -18 18 -16 34 1 20 19 -16 56 3
56 28 0 45 -62 52 -74 8 -5 -21 -6 -21 -20 -2 -20 26 -20 39 0 31 11 -4 18 1
21 14 4 15 11 19 24 15 14 -5 17 -2 13 9 -3 9 -9 16 -13 16 -18 0 -61 -27 -63
-39 -4 -21 -75 134 -93 203 -8 33 -18 95 -21 138 -8 92 1 101 65 68 38 -19 41
-23 41 -64 0 -107 64 -272 154 -394 44 -59 46 -66 46 -127 0 -36 -4 -65 -9
-65 -5 0 -33 26 -63 58 -29 31 -50 53 -46 48 14 -17 9 -26 -14 -27 -20 -1 -20
-2 7 -14 17 -7 52 -32 78 -56 41 -36 46 -44 32 -51 -20 -12 -83 -2 -150 23
-27 10 -99 27 -159 38 -60 11 -111 23 -114 25 -3 3 7 10 22 16 26 9 26 11 11
34 l-16 25 78 -6 c43 -3 94 -9 113 -14 52 -13 61 -10 16 7 -43 15 -214 39
-223 30 -3 -3 2 -17 11 -30 15 -24 15 -26 -3 -36 -11 -5 -27 -10 -36 -10 -23
0 -8 -19 23 -31 15 -6 70 -19 122 -29 52 -10 128 -30 169 -44 83 -29 108 -31
146 -14 21 9 32 8 61 -5 48 -23 77 -21 111 7 28 24 31 24 72 10 48 -16 68 -13
164 28 37 16 111 40 165 54 90 23 150 49 139 60 -2 3 -17 7 -33 10 -16 3 -30
7 -32 9 -3 2 6 21 19 41 21 35 21 37 3 30 -10 -4 -55 -14 -99 -21 -84 -14
-142 -32 -132 -41 3 -3 14 -1 24 4 10 5 43 13 73 17 30 3 70 10 88 15 17 5 32
5 32 2 -1 -27 -52 -56 -68 -40 -9 9 -16 7 -31 -6 -13 -11 -20 -13 -23 -6 -2 8
-15 5 -39 -9 -20 -12 -63 -28 -95 -37 -32 -8 -62 -20 -66 -27 -6 -9 -8 -9 -8
1 0 9 -7 11 -21 7 -15 -5 -20 -3 -17 6 3 8 13 15 24 17 26 4 76 24 71 28 -2 2
-17 0 -34 -5 -18 -5 -34 -7 -37 -4 -3 3 13 32 36 66 54 80 114 209 133 288 22
91 32 264 15 274 -7 4 -30 2 -52 -6 -33 -11 -41 -11 -48 1 -6 10 -2 22 12 37
20 22 20 24 4 42 -21 23 -94 56 -172 76 -80 21 -213 18 -297 -6z m203 -10 c0
-5 -14 -9 -31 -9 -17 0 -28 -4 -24 -10 3 -5 1 -10 -5 -10 -6 0 -8 -5 -5 -11 4
-6 13 -8 19 -6 7 3 31 2 54 -3 25 -4 45 -3 51 3 8 8 11 7 11 -2 0 -11 3 -11
17 0 11 9 14 10 10 2 -8 -13 15 -22 60 -26 12 0 20 -4 17 -8 -2 -4 2 -12 10
-18 10 -8 17 -6 30 8 17 18 15 20 -31 37 -59 21 -75 34 -42 34 28 -1 111 -41
116 -57 2 -6 -12 -20 -32 -31 l-35 -21 -47 20 c-121 52 -270 47 -389 -12 l-61
-31 -32 29 c-30 28 -31 30 -14 45 51 45 152 79 258 87 84 7 95 6 95 -10z m93
-119 c66 -20 66 -20 60 -53 -6 -38 15 -62 47 -54 18 5 20 0 20 -36 0 -103 -57
-266 -130 -371 -39 -57 -42 -59 -76 -41 -39 20 -73 19 -112 -5 l-32 -20 -31
43 c-90 124 -145 254 -151 356 -3 45 0 54 15 57 41 6 61 46 36 71 -12 12 19
32 90 58 56 21 188 18 264 -5z m247 -102 c0 -80 -27 -213 -58 -296 -30 -77
-95 -183 -150 -243 l-48 -52 -13 56 -12 56 39 53 c86 115 142 271 142 394 0
63 0 64 38 83 59 32 62 29 62 -51z"/>
<path d="M530 795 c-57 -19 -72 -73 -32 -118 14 -16 13 -20 -16 -50 -38 -40
-71 -111 -72 -155 0 -95 100 -163 194 -132 38 12 121 95 136 135 25 67 2 121
-58 130 -92 16 -126 53 -70 76 26 11 56 55 44 66 -2 2 -22 -7 -45 -21 -49 -31
-62 -32 -92 -6 -24 20 -24 20 -4 36 14 11 33 14 63 11 48 -5 55 6 15 26 -23
12 -35 12 -63 2z m40 -163 c0 -35 23 -52 80 -59 30 -3 61 -10 68 -16 33 -26
-3 -111 -67 -154 -75 -50 -172 -38 -203 27 -26 53 -8 111 53 172 51 51 69 59
69 30z"/>
</g>
</svg>
